<svg xmlns="http://www.w3.org/2000/svg" viewBox="0 0 1341 678"><path fill="#fbb600" d="m602.5 15 3.5 2.5-4 10-8 13v2l-7 13v2l-3 6-3.5 3.5-5.5 1.5 3 5v3l-4 10-9 13-2 5-9 13-3 7-12 18-6 14-8 13-4 12-8 11-2 8-5 8-4 4-1 8-10 21-1 9-2 6-4 7-4 16-2.5 2.5-2.5-1.5v-5l2-4v-4l9-21 1-9 3-6 1-5 4-6v-7l5-9v-2q-2.2-1.3-1-6l5-8 2-10 10-17 1-6 4-5 5-10 2-7 8-14 1-4 2-2 7-14q6.2-6.8 10-16L566.5 71l6.5-3.5 1-11 4-8 5-7 6-12L600.5 16zm7 12 2.5.5v9l-3 6-3 12-5 11-3 4-1 7-9 17v3l-6.5 12.5q-4.5 1-5.5-1.5l8-17v-3l2-6 6-10 1-8 4-8 1-5 4-7 2-6 2-2 2-7zm701 26 4.5.5 1 3-4 8-7 8-1 3-31 45-16 19-3 6-5.5 5.5-9 7h-3q-2-.5-1.5-3.5l1.5-2.5 11.5-10.5 3-5v-3q-.5-3-4.5-2.5l-17 17-4 1-3-1-5.5-5.5-3-6v-12l-1-1 2-6 5.5-6.5 16-10h2l21-11 11-8 3-1zm-120 76 5.5.5q2.2 2.8 1 9l1 1 2 11q2.6 7.4 8.5 11.5l5.5 4.5 1 3-15.5 20.5-5 3-9 1-7 3-7 1-21 7-19 1-3.5-3.5-1-3v-14l1-1 1-8 4-9v-3l4.5-6.5 19-12 14-7 5-1zm24 24q4.8-.7 5.5 2.5l-1.5 2.5q-3.7.8-4.5-1.5l-1-2zm-761 19 4.5.5v4l-6 18v4l-1 1v4l-2 6-6 13-2 8-9 19v2l-9 17v3l-3 9-2 3v3l-3 5-2 6v3l-5 12-1 6-3 5-1 8-3 8v4l-1 1-1 8-22 46-1 6-4 9-1 7-3 5-1 5-2 3-3 9q.8 3.3-1 4v11l2 5 2 2v3l-3.5.5-6.5-4.5-3-5v-10l1-1v-6l1-3 4-9 2-2 3-11 2-2 3-9 3-4v-3l4-9 1-5 5-8 4-13 5-8v-3l5-15v-4l4-8 1-6 4-10v-3l9-23v-4l1-1v-3l2-6 5-10 8-24 3-4v-2l12-25 3-9 1-7 2-3 2-6v-3zm766 5q4.8-.7 5.5 2.5l1 2-2 5-15.5 17.5-3 1-2.5-1.5-1-3 6-11 9.5-11.5zm-114 3q5.5-1 6.5 2.5l-1 6-1 1v9l-1 2 1 1q-.7 4.2 1 6l5.5 6.5 5.5 4.5q1.7 1.8 1 6-7.4 13.1-17.5 23.5l-12 4-7 4-5 1-8 4h-4l-6 3-6 1-9 4q-3.2-.7-4 1h-7l-2.5-1.5-3-6v-30l2-5 7.5-8.5 14-10 5-2 12-9h2l2-2h2l2-2 15-7z"/><path fill="#fbb600" d="M463.5 188q4.2-.7 6 1 3.7 4.3 10 6l6.5 5.5 2 5-4 7-1 7-3 6-6 18-1 8-2 3-1 5-3.5 4.5-10.5 8.5-4 8v13l6.5 9.5 10 8h2l3 2h8l11.5-10.5 5-8 2-6v-9l-6-11v-5l3-5 2-6v-3l1-1v-3l2-3 2-7 9-18v-2l2.5-3.5 5-1 24 11 8 6 24 14 11 8 9 4h2l12 7 7 1 10 4 6 1 9 4 9 1 9 4 7 1 3 2 12 3 15 8 7 2 19 10h2l19 10 5 1 6 3 5 3 4.5 4.5v5l-3 3-4 8-6 8-4 12-2 10-11 23-2 8-8 15v3l-3 5v2l-6 14v4l-1 1v4l-2 6-4 8-2.5 2.5h-3l-16-11-7-4-4-1-2-2-3-1h-10l-15 8-10.5 9.5-7 9-4 8-10 15-3 9v24l-2.5 2.5h-7l-12-5-8-1-1 1h-12q-1-2-5-1l-1 1-9 1-1-1h-5l-3-1-2-2-12-2-8-4h-5l-5-2h-6l-1-1-8-1-2.5-2.5v-2l6-6 3.5-8.5 9-2 3-3 6-3h2l6-4 3-1h6l3.5-3.5 1-3-2.5-3.5h-3l-6-2-5-4h-5l-4 4h-7l-1.5 1.5-1 8-2 6-2.5 2.5-2.5-1.5-1-6-2.5-2.5q-4.7-.7-5.5 2.5l-1 3v5l-2.5 5.5-2 1-2.5-1.5q-.8-5.3 2-7v-6l-2.5-2.5-4.5-1.5v-5l4-5 1-4-4-5 6-11 2-11 12-17 2-6v-3l4-9v-5q-2.9-7.1-8.5-11.5l-7-3-9-1-1 1h-4l-8 3h-6l-9 5-10 2-29 15-5 4-13 5-3.5 3.5-1 3 1.5 2.5h4l35-19 8-2 7-4 5-1 2-2 7-1 1-1h4l1-1h6l8-3h7l3 1 2.5 2.5 2 4q-.5 2-3.5 1.5l-5-4h-4l-1.5 2.5 7 8v4q-1 2.5-5.5 1.5l-6-4h-4l-12 6-10 1-7 3-9 1-6 3-8 1-9 3-17 10-8.5 8.5-5 7v2l-3 5v6q2.8 1.7 2 7l-3.5.5-4.5-3.5-5-9-1-3v-6l1-1 2-10 2-3v-2l2-3 4-12v-3l1-1v-3l3-9 10-19v-2l3-6 6-10 2-10 4-12 1-8 3-6 1-7 3-6 3-11 2-3 2-11 2-3v-2l6-13 1-6 5-9v-2l3-4 1-4 9-16 1-6 4-10v-4l1-1v-4l2-4 1-7 1-1v-4zM582 391l-2 1-3 5v5q1 3 6 2 5-2 3-10 0-3-4-3m-9 21-6 5-4 1q-4 1-3 7l3 2h2l3 2q7 2 8-2v-3l-4-4 2-2 5-1 1-2q-1-4-7-3m-16 19-2 2v2l3 3v3h-6l-1-1q-7-1-8 3l1 3 9 4q4 1 7-1l8-7 1-3q-3-7-12-8m-19 20-2 1q-5 2-5 8l3 2h3l8 3 4-1-1-5-6-7zm620.5-240 6.5.5-.5 2.5-9 4q-4-1-5 1h-8l-1.5-1.5 2.5-2.5 11-2zm-29 15 3.5 2.5-1 5-7 9-3 6-11.5 11.5-3.5-.5-1-2 3-5 11-12 7.5-13.5zm-108 10 1.5.5v22l-1 1 1 1 1 7q4.6 2.9 6 9l-3.5 2.5-5.5-4.5-3-7v-21l1-1v-6zm-15 8q3-.5 3.5 1.5v21l4 11 9 9v3q-10.5 16-24.5 28.5l-8 4h-6l-16 8h-6l-4.5-3.5-5-7-4-8-1-5-7-12v-6l5.5-6.5 17-12 5-2 12-8 20-10zm-723 27 .5 4.5-12 13-6 11-7 9-10 19-3 11-9 19-18 21-1 6-1 1v7l5.5 7.5q2.2 1.8 7 1l11.5-9.5 7-12v-3l3-9v-8l1-1v-11l5-15v-3l7-15 3.5-3.5 2.5 1.5v2l-3 5v2l-5 11v8l-1 1v13l-1 1v8l-1 1v11l-1 1-2 10-4 7-2 10 1.5.5 8.5-8.5 3-11 2.5-2.5h5l3 2 6 1 8 4h5l9-3 3-2 10-1 9-3h9l6 3 2.5 2.5 1 3-3 8-4.5 4.5-3 1h-8l-4.5 3.5-1 4-6.5 6.5-10 4-14 11-2-1-3 1-2.5 2.5v4l-3.5 5.5-9 8-7 4-7.5 6.5-4.5 5.5-3 1-6 5-5 2q-4.6 5.9-12 9h-2l-7 4h-3l-4 2h-4l-1 1h-3l-9 3-11 6-11 3-18 9-7 1-13 5h-10l-3 2-6 1-1 1h-8q-2-.5-1.5-3.5l10.5-7.5h2l2-2h2l8-5 10-2 14-8 5-1 16-9 5-1 8-4 5.5-4.5-.5-2.5-12 2-4 3h-2l-7 4h-2l-21 11-5 1-7 4-15 5-13 8-14 6-7 5-3 1h-7l-1 1h-21l-1-1h-6l-3.5-3.5q3-7.5 9.5-11.5l15-11 14-6 11-7h3l3-2h2l3-2 9-3h7q1 2 5 1l10-5 7-7 13-9 7.5-7.5 12-18 3-7q6.9-7.6 11-18l3-3q1.8-2.2 1-7l-4-5v-3l5-11v-5l3-8 1-7 3-6 4-14 2-3 2-10 3-5 5-15 2.5-2.5 2.5.5v7l-1 1v3l-2 5v4l-1 1v10l-1 1v7l1 1v10l-1 1v9q-1.7.8-1 4l-2 4-11 14-4 8-1 3v9q-2.2 1.3-1 6l3.5.5 2.5-1.5 2-4 3-15 2-4 5-5q3.1-7.9 9-13l4-12 10-19 28-39q10.7-13.8 23.5-25.5zM205 415l-5 2-5 5-1 3 1 2 5 4 10 7h2l3-2 5-7q1-6-1-8l-4-5q-4 1-4-1zm-13 18-2 3 1 4q1 3 7 2v-4l-4-5z"/><path fill="#fbb600" d="m463.5 279 1.5.5v9l-1.5 1.5q-3.5-2-2.5-8.5zm26 5 2.5 1.5q-3 12-11.5 18.5l-3 1-5-2-6.5-6.5.5-2.5h2l4 3h4l6.5-3.5q1.5-6.5 6.5-9.5m545 5q3-.5 3.5 1.5v2l-4 6-22.5 23.5-4 3-4 1-1.5-2.5 26-27 3.5-5.5zm-100 13q3-.5 3.5 1.5l9 15v3l-2.5.5-5.5-6.5v-2l-5-8zm-15 1h5l3.5 3.5 1 5 13 19 1 4-8 12-4.5 4.5-13 8-9 3-6 4h-2l-7 4-5 1-13 6h-3l-7-8-5.5-4.5-10-11v-2l2.5-3.5 12-7 25-19zm-558 22q4.8-.7 5.5 2.5l-1 4-6 8v5l-2 4-7 10-2 9-4.5 6.5h-27l-13 5h-26l-5.5-4.5.5-3.5h3l5-3h2l34-22 26-13 6-1 2-2zm417 6q3.8-.7 4.5 1.5v3q-8.8 7.7-15 18l-13 39-6 11v2l-4 7-5 15-3 5-3 16-4 8v3l-3 7v4l-2 5-1 10-1 1v4l-1 1-1 7-2.5 4.5-1.5-.5q.8-3.2-1-4v-12l1-1v-6q1.8-.7 1-4l2-4 1-12 1-1 1-6 2-3v-3l4-11v-3l2-3v-2l2-3v-2l2-3 4-12 7-13 3-11 4-7 6-19 11-19 6.5-6.5zm167 12 2.5 1.5q.7 4.2-1 6L936.5 362l-14 9-12 4-7 4-3 1h-5l-1.5-2.5 2.5-2.5 10-5 5-1 4-3h2l12-6 11.5-10.5zm-109 17q5.8-.8 7.5 2.5l6 10 5.5 5.5 5.5 4.5 1 4-13.5 10.5-5 1-10 5-10 1-1 1h-8l-1 1h-10l-14-5-7-1-4.5-3.5q-.7-3.7 1.5-4.5l15-8h2q3.7-4.3 10-6l3-3 15-7zm-601 13 2.5 1.5v6l-7.5 10.5-4 1-2.5-3.5v-2l4-8 4.5-4.5zm644 10 3.5 2.5q-3.4 4.6-10.5 5.5l-.5-3.5 2.5-2.5zm-725 36q3.8-.7 4.5 1.5v5l-3 8-9 12-6.5 6.5-6 4-12 11-4 2h-15q-1 2-5 1l-9 4-14 9-5 1-6 4h-5l-.5-1.5 5.5-4.5 5-2 27-17 9-8 10-6 6-6q7.8-3.7 13-10l6-3zm320 3 4.5.5 1 4-7.5 8.5-6.5 5.5-6 10v3l5 10v34q2.3 1.2 1 6l1 1v3l3 9v6l1 1v4l1 1 1 7 10 30v13l-1 1v11l4 6 3 8-2.5 4.5h-3l-6-3h-9l-4-2h-4q-5.2-1.8-8-6l-6-3h-5l-.5 4.5 5.5 4.5 11 6 10 1 9 3q4.8 1.7 7.5 5.5l-1.5 4.5h-8l-6-3q-3.2.8-4-1h-6l-12 5-7 6-4 1-9-3h-4l-7-3h-7q-.8-1.7-4-1l-15-7-2-2-9-3h-9l-1 1h-19l-3 2h-2l-7 6-6 3q-2.2-.7-1.5-4.5l3.5-3.5 11-6 9-1 7-4 8-2 3-2q4.6.6 6-2h5l1 1h3l6 2 5 3 9 1 7 4 8 1 1 1 8 1 1 1q.8-1.8 4-1l2.5-2.5q.8-3.7-1.5-4.5-2.2-1.8-7-1l-1-1h-6l-8-3-8-1-9-5h-2l-6-3q-4 1-5-1h-12l-1 1-7 1-11 7-10 2-5 3h-4l-7.5-5.5.5-2.5h3q1.4 2.6 6 2 3.3-.7 2.5-5.5l-4-4v-2l1.5-1.5 6-2h8l1 1h25l1-1h8l1 1h15q1 2 5 1l1-1h6l3 1 1-1q4.7 1.3 6-1l23-1 6 3 6 1 2.5-1.5 1-3-5-11q-5.9-5.1-9-13v-2l-6-13-1-7-4-7-1-5-7-15-1-5-7-13q-7-5-11-13v-15l5-11 10.5-11.5 9-7 13-8 6-2h10l1-1h6zm-58 12q2 .5 1.5 3.5l-3.5 4.5-6.5 5.5-3 4-4.5 10.5-5.5-.5v-7l3-7 4.5-5.5 7-5zm244 21h9l1.5 1.5-.5 1.5-7 1-1 1h-4l-1.5-2.5zm17 9 5 1 2.5 2.5-4.5 3.5h-5l-10 4-17.5 11.5-1.5 2.5-7 6h-3q-1-2-5-1l-5.5 5.5-1 8-2.5 3.5-2.5-.5v-4l3-9 7-11 11.5-12.5 9-5h7l1-1 6-1 3-2h9zm14 15h3l8.5 4.5 3 5v3l-4.5 3.5-4.5-3.5-1-3-6-6v-2zm-18 6h7l5.5 5.5 5 8 4 12v3l1 1 1 9 5 9 1 7 2 4 34.5 38.5 10 8 8 4h10l1 1h6l6 2h16l1 1h4l6 2h16q1 2 5 1l8 3h3l3 2h3l6 2 12.5 9.5 12 16q-.7 3.3 1 4l-4.5 3.5-9 3q-4.7-1.2-6 1h-10l-9 3h-8l-1 1q-4.8-1.3-6 1h-18l-6 2h-23l-1-1h-15l-1-1h-16l-1 1h-3l-9 3-10 1-6 2h-5l-8 3-2.5-3.5 7-8v-3l-4.5-1.5-3 1-5 4h-4l-2.5-2.5q1.5-6-1.5-7.5l-5.5-2.5-2-4v-5q3.7-4.8 9.5-7.5h2l8-4h4l1-1 7-1 1 1h11l12 5 7 1 3.5-2.5-2.5-3.5-7-3-7-6-9-4q-6.8-6.2-16-10l-6.5-5.5q-.5-3 1.5-3.5l3-1h6l2.5-2.5-.5-3.5-6-2h-5l-5 2h-5l-26-13-5.5-5.5-14-16-4-9v-11l3-7 16.5-19.5zM759 615l-5 2-1 4 4 1q4 1 6-1h15l1 1h5q0-2 4-1l1-1-1-3-2-2zM40.5 495q3-.5 3.5 1.5l-2.5 5.5-11 9-4 1-3.5-2.5q-1-5.5 2.5-6.5l5-1zm271 14h5l4 2h3l6 2 7.5 4.5 1 2-3.5 4.5-8 2-9 4-10 2-4.5 3.5q-.5 3 1.5 3.5 3.3-.8 4 1l9-3h5l1-1q4.2.7 6-1l2.5 3.5-2.5 3.5-17.5 15.5-6.5 7.5-2.5 1.5-.5 1.5-9.5 8.5-5 7-17.5 17.5q-6.4 5.1-15 8h-15l-1 1h-7l-8 3-9 1-15 8-2 2h-2l-6 3-11 11q-7.2 2.8-12 8h-3l-2.5-3.5 4.5-5.5 6-1 2.5-2.5 1-7 2-4 8.5-8.5 12-7 3-1h8l6.5-4.5-.5-2.5h-5l-4 2q-4.7-1.2-6 1h-8l-3 1-21 12-7 7h-4l-1.5-4.5 4.5-6.5 12.5-9.5q1.7-4.8 5.5-7.5l5-2h6l1-1h7l1-1 10-1 18-6 25-15 15.5-12.5 1.5-2.5 9.5-8.5 4-6 23.5-25.5zM268 573l-12 6-3 4 1 3 5-1 9-7q3-1 2-4z"/><path fill="#fbb600" d="m276.5 529 .5.5-5.5 5.5-.5-.5zm220 18 13.5.5-13.5.5zm60 4h15l3 1 7 3 8.5 8.5 3.5 4.5 5.5 4.5q.8 3.8-1.5 4.5h-24l-6-2h-12l-1-1h-9l-2-1-1 1h-8l-2-1-1 1h-6l-1 1h-16l-3.5-4.5v-5l2.5-4.5 5-3h4l5-2q4 1 5-1h11l1-1h7l1-1h4zm-391 41q4-.5 4.5 2.5l-4.5 5.5-8 4-12.5 10.5-2 4-6.5 7.5-4.5-.5 1-6 5.5-5.5q6.1-1.4 8.5-6.5.6-3.9 3.5-5.5l7-6zm157 15 3.5 2.5q.8 4.8-2.5 5.5l-4.5-.5q-1.2-5.2 1.5-6.5zm-174 19 4.5.5 1 5-3.5 3.5h-4q-2.7-1.2-1.5-6.5zm521 9 4.5 2.5 4 5v2q-2 5.5-6.5 8.5l-5 2-4.5-3.5q-.5-3 1.5-3.5 4.8.8 5.5-2.5l-2-8zm-238 2 10.5.5-10.5.5z"/><path fill="#e01708" d="m599.5 12 8 1 6.5 5.5 2 6v14l-1 1v5l-1 1v5l-1 1-1 11-4 10-1 7-5 15-4 7v7l-3 9-6 13-9 15-2 8-4 7-2 7-18 30v2l-5 9v5l3.5 4.5 12 8 6 3 5 1 11 9 7 4h2l7 5h2l12 6 12 4h3l5 2h4l1 1h4l9 4h3l13 5h3l9 3 3 2h2l7 4 13 4 6 4h2l5 3 13 4 35 17h2l18 10 5 1 11.5 9.5 1 4-8 10-1 3-7 10-3 10 3.5 4.5 5-2 7-1 21-11 13-9 7-7 9-6 12-6 23-16 7-3 19-13 7-6 4-2 21-20 7-5 12-6 2-2 4-1 6-4 14-6 9-6 4-4 10-6 12-10 4-2 8-8 18-12 21-11 10-7 8-4h2l17-9 31-25 13-6 11-7 5-1 11-6h2l13-8h2l7-5h2l10-5 6-5 10-5 5-4 7-3 18-12 5-2 36-25 4-1 7-5h6l2.5 1.5q2 2.5 1 8l-6 9q-3.8 10.7-10 19l-6 7-6 10-13 15-7 10-7 13-11 15-7 14-11 16-3 7-4 4-12 18-23.5 25.5q-9.6 6.4-17 15l-9 5-17 12-26 15-13 10-9 9-8 4-5 4-6 3h-2l-4 3-6 3h-2l-20 11-15 5-14 7-4 1-11 7-32 16-6 5-6 2-12 8-4 1-12 7-18 6-17 8-10 3-8 5-10 4-10 7-6 2-8 6-21 11-3 1h-5l-1 1h-12l-1-1h-14l-1 1h-4l-8 3-18.5 14.5-5 10-3 9v3l-9 18v2l-5 11-7 11-7.5 8.5-10.5 5.5-1 5q16.6 19.9 35.5 37.5l14 7 10 1 1 1h5l4 2h10l1 1h19l1 1h7l1 1 7 1 4 2h3l9 3q17.9 8.1 29.5 22.5l6 8q-.7 3.3 1 4l-1 2q2 1 0 2-.4 5.6-4.5 7.5l-8 3h-4l-9 3h-5l-1 1q-4.7-1.2-6 1h-7l-1 1h-11l-1 1h-11l-1 1q-4.7-1.3-6 1h-6l-4 2h-13l-1-1q-4.8 1.3-6-1h-13l-1-1h-24l-5 2h-4l-8 4h-8l-6 2h-8q-.7 1.8-4 1l-1-1h-6q-4.8-1.7-7.5-5.5l-1.5-2.5-5-1-7 3-12 1-6.5-4.5-2-3v-11l2-5 8.5-9.5 3-2h2l12-8 6-3 10-3 7.5-4.5v-3l-3.5-3.5-16-9q-7.6-9.4-18-16l-9-4-8-1-1 1h-3l-1 1-15 3-3 2-7 2-8 5q-4.8-1.3-6 1h-15l-1 1-13 1-1-1h-14l-1-1h-8l-1 1h-8l-1 1h-3l-1 1h-3l-6 2-10 5h-3l-3 2-6 1-6.5 4.5q-1.8 2.2-1 7l-1 1v10l-4.5 7.5-9 5h-7l-9-4h-8l-6 5-6 3h-25l-1-1h-5l-1-1-8-1-12-6-2-2-9-3-5-3q-4 1-5-1h-7l-1 1-11 1-16 7-5 4-7 1-5.5-4.5q-1-5-4.5-7.5-6.2-1.2-7.5 2.5l-2 6-3.5 3.5q-3.7.8-4.5-1.5v-5l4-8 14-22v-2l3-6 7.5-8.5 6-3 11-1 1 1h23l12-4h7l4-2h3l3-2 8-1 9-4h4l6-2 10-1 3.5-2.5 1-2-6-12-3-12-6-12-1-5-5-10-7.5-11.5-3-2h-6l-9 4-11 7q-16.3 13.2-30.5 28.5L324.5 559l-10.5 8.5-6.5 7.5-16 15-6.5 4.5q-3.4 7.1-9.5 11.5l-7 6-7 4-6 2h-15l-1-1h-11l-15 7-9 3-10 6-18 17q-3.8 3.7-11 4l-6.5-5.5-2.5-4.5h-7l-1 1q-.8-1.7-4-1l-8-7-4.5 3.5-1.5 2.5-4 1-2.5-3.5v-3l2-5v-6l1-1v-5l2-6q4.5-8 11.5-13.5l12-9 19-10h28l1-1h6l12-4 7-4h2l21-15 28.5-28.5 20-25 10.5-10.5 4.5-3.5.5-1.5 4.5-3.5 3.5-4.5 2-1h9l3-1 3.5-3.5v-4l-6-6q.9-5.4-1.5-7.5l-5-1-7 3h-3l-8 3h-3l-11 6-8 2-3 2-11 2-7 4h-2l-2 2-10 3-14 8-10 2-12 4h-4l-4 2h-4l-4 2-8 1-5 3h-2l-10 5-8 2-10 5h-3l-9 4-7 1-9 4h-3l-9 3h-6l-1 1-11 1-1 1h-10l-1 1q-4.7-1.2-6 1h-6l-1-1-11-1-1-1h-9l-1-1h-19l-9-4-5.5-4.5-4-7-1-3v-5q2-5.5 6.5-8.5l21-10 5-4 27-14 6-5 15-9 14-12 7-3 14-10 11-10 12-8 6-3h2l7.5-7.5 4-8 1-6 4-9v-3l2-6 4-8 1-6 3-6 2-6v-3l7-21 3-5v-2l2-2 3-9 6-9 6-13 3.5-3.5q3.8-.7 4.5 1.5v7l-1 1-2 14 1 1v9l-1 1v11q-2.2 1.2-1 6l1.5 2.5 2 1 3.5-2.5q7.4-13.6 18.5-23.5l7.5-5.5 7-10 19.5-19.5 5-1v1L269 284.5l-20 25-22 32-7 14-4 12-6 7-1 3-7 8-2 4-3 15-2.5 4.5-5 1-.5-5.5 1-1v-9l1-3 4-8 11-14 2-4q-.7-3.2 1-4v-9l1-1v-10l-1-1v-7l1-1v-10l1-1v-4l3-9v-7l-2.5-.5-2.5 2.5-5 15-3 5-1 7-10 26-1 7-3 8v5l-4 8-1 6 4 5v5l-4 5-2 5-9 13-3 7-8 11-1 3-10.5 11.5-13 9-10 9-7 3h-4l-1-1h-7l-9 3-3 2h-2l-3 2h-3l-11 7-14 6-9 6L38 514.5l-2 4 3.5 3.5h6l1 1h21l1-1h7l3-1 7-5 14-6 13-8 5-1 17-8 5-1 21-11h2l7-4h2l4-3 12-2 .5 2.5-5.5 4.5-8 4-5 1-16 9-5 1-14 8-10 2-2 2-6 3h-2l-2 2h-2l-10.5 7.5q-.5 3 1.5 3.5h8l1-1 6-1 3-2h10q.8-1.7 4-1l6-3 10-2 3-2h2l13-7 11-3 11-6 9-3 15-3 7-4 6-2 8-7 5-2 6-5 3-1 4.5-4.5 1.5-2.5 13-9 10.5-9.5 2-4v-4l2.5-2.5 4-1q1 2 2 0l13-10 10-4 6.5-6.5 1-4 2.5-2.5 2-1h8l3-1 4.5-4.5 3-9-3.5-4.5-6-3h-9l-9 3-10 1-8 4-9 1-8-4-6-1-3-2h-5l-2.5 2.5-3 11-8.5 8.5-1.5-.5 2-10 4-7 2-10 1-1v-11l1-1v-8l1-1v-13l1-1v-8l5-11v-2l3-5v-2l-2.5-1.5-3.5 3.5-6 12-1 6-5 15v11l-1 1v8l-1 1-2 11-8.5 13.5-10 8h-5l-4.5-3.5-3-5v-7l1-1 1-6 2-3q9.2-7.8 16-18l9-19 3-11 10-19 7-9 6-11 11-11 1.5-5.5 2.5 4.5-4 12q1.3 4.8-1 6v10l-5 11-2 10-1 1v3l-2 4v7l-1 1v10l-2 6 2.5 4.5 7-1 6-5 15-9 3-3 13-7 5-1 5-3 7-2 15-8h2l11-5 7.5-7.5 2-4v-3l2-6 11-13 11-22 4-5 7-14 4-5 4-8 7-21 2-3v-3l4-8 7-22 9.5-10.5 4-2h7l5 2 5.5 5.5 3 6 10.5 10.5 12 9h3l4.5-4.5 2-7 4-7 2-10 8-14 3-10 6-12 1-5 4-7v-2l13-20v-2l4-8 7-10 7-13 6-6 9-15Q583 31 590.5 18zm3.5 3-2 1-12 14-6 12-5 7-4 8-1 11-6 3-11 13q-4 9-10 16l-7 14-2 2-1 4-8 14-2 7-5 10-4 5-1 6-10 17-2 10-5 8q-1 4 1 6v2l-5 9v7l-4 6-1 5-3 6-1 9-9 21v4l-2 4v5l3 1 2-2 4-16 4-7 2-6 1-9 10-21 1-8 4-4 5-8 2-8 8-11 4-12 8-13 6-14 12-18 3-7 9-13 2-5 9-13 4-10v-3l-3-5 6-2 3-3 3-6v-2l7-13v-2l8-13 4-10zm7 12-2 2-2 7-2 2-2 6-4 7-1 5-4 8-1 8-5 9q-1-2-4-1l-5 5-6 12-1 4-7 10-4 9-7 10-2 5-4 5-6 14-6 8-10 21-8 12v6l15 7q4 1 7-1l2-2v-2l5-10v-2l8-15 2-7 7-13 2-8 5-10v-2l5-9q1-5-1-6v-7l3-6q0 2 5 1l6-12v-3l9-17 1-7 3-4 5-11 3-12 3-6v-9zm701 26-37 28-3 1-11 8-21 11h-2l-16 10-6 7-2 6 1 1v12l3 6 6 5 3 1 4-1 17-17q4 0 4 3v3l-3 5-11 10-2 3q0 3 2 3h3l9-7 5-5 3-6 16-19 31-45 1-3 7-8 4-8-1-3zm-120 76-15 9-5 1-14 7-19 12-5 7v3l-4 9-1 8-1 1v14l1 3 4 3 19-1 21-7 7-1 7-3 9-1 5-3 15-20-1-3-5-5q-6-4-9-11l-2-11-1-1q1-7-1-9zm24 24-2 2 1 2q1 2 5 1l1-2q-1-4-5-3m-761 19-3 5v3l-2 6-2 3-1 7-3 9-12 25v2l-3 4-8 24-5 10-2 6v3l-1 1v4l-9 23v3l-4 10-1 6-4 8v4l-5 15v3l-5 8-4 13-5 8-1 5-4 9v3l-3 4-3 9-2 2-3 11-2 2-4 9-1 3v6l-1 1v10l3 5 7 4h3v-3l-2-2-2-5v-11q2-1 1-4l3-9 2-3 1-5 3-5 1-7 4-9 1-6 22-46 1-8 1-1v-4l3-8 1-8 3-5 1-6 5-12v-3l2-6 3-5v-3l2-3 3-9v-3l9-17v-2l9-19 2-8 6-13 2-6v-4l1-1v-4l6-18v-4zm766 5-2 1-10 12-6 11 1 3 3 1 3-1 15-17 2-5-1-2q-1-4-5-3m-114 3-10 7-15 7-2 2h-2l-2 2h-2l-12 9-5 2-14 10-8 9-2 5v30l3 6 3 1h7q0-2 4-1l9-4 6-1 6-3h4l8-4 5-1 7-4 12-4q10-10 17-23 1-5-1-6l-5-5-6-6q-2-2-1-6l-1-1 1-2v-9l1-1 1-6q-1-4-6-3m-642 8-3 3v4l-1 1-1 7-2 4v4l-1 1v4l-4 10-1 6-9 16-1 4-3 4v2l-5 9-1 6-6 13v2l-2 3-2 11-2 3-3 11-3 6-1 7-3 6-1 8-4 12-2 10-6 10-3 6v2l-10 19-3 9v3l-1 1v3l-4 12-2 3v2l-2 3-2 10-1 1v6l1 3 5 9 5 3h3q1-6-2-7v-6l3-5v-2l5-7 9-9 17-10 9-3 8-1 6-3 9-1 7-3 10-1 12-6h4l6 4q4 1 5-1v-4l-7-8 2-3h4l5 4q3 0 3-1l-2-4-2-3-3-1h-7l-8 3h-6l-1 1h-4l-1 1-7 1-2 2-5 1-7 4-8 2-35 19h-4l-2-2 1-3 4-4 13-5 5-4 29-15 10-2 9-5h6l8-3h4l1-1 9 1 7 3q5 4 8 12v5l-4 9v3l-2 6-12 17-2 11-6 11 4 5-1 4-4 5v5l5 1 2 3v6q-3 1-2 7l3 1 2-1 2-5v-5l1-3q1-4 6-3l2 3 1 6 3 1 2-2 2-6 1-8 2-2h7l4-4h5l5 4 6 2h3l2 4-1 3-3 3h-6l-3 1-6 4h-2l-6 3-3 3-9 2-4 9-6 6v2l3 2 8 1 1 1h6l5 2h5l8 4 12 2 2 2 3 1h5l1 1 9-1 1-1q3-1 5 1h12l1-1 8 1 12 5h7l2-2v-24l3-9 10-15 4-8 7-9 11-10 15-8h10l3 1 2 2 4 1 7 4 16 11h3l2-2 4-8 2-6v-4l1-1v-4l6-14v-2l3-5v-3l8-15 2-8 11-23 2-10 4-12 6-8 4-8 3-3v-5l-4-5-5-3-6-3-5-1-19-10h-2l-19-10-7-2-15-8-12-3-3-2-7-1-9-4-9-1-9-4-6-1-10-4-7-1-12-7h-2l-9-4-11-8-24-14-8-6-24-11-5 1-3 4v2l-9 18-2 7-2 3v3l-1 1v3l-2 6-3 5v5l6 11v9l-2 6-5 8-11 10h-8l-3-2h-2l-10-8-7-9v-13l4-8 11-9 3-4 1-5 2-3 1-8 6-18 3-6 1-7 4-7-2-5-6-6q-7-2-10-6-2-2-6-1m695 23-4 2-11 2-3 3 2 1h8q1-2 5-1l9-4v-2zm-29 15-2 1-8 14-11 12-3 5 1 2h4l11-11 3-6 7-9 1-5zm-108 10-3 4v6l-1 1v21l3 7 6 4 3-2q-1-7-6-9l-1-7-1-1 1-1v-22zm-15 8-6 6-20 10-12 8-5 2-17 12-6 7v6l7 12 1 5 4 8 5 7 5 3h6l16-8h6l8-4q14-12 24-28v-3l-9-9-4-11v-21q-1-2-3-2m-543 35-3 3q-1 6 3 8l1-1v-9zm26 5q-5 3-7 10l-6 3h-4l-4-3h-2l-1 3 7 6 5 2 3-1q8-7 11-18zm545 5-3 2-4 6-26 27 2 2 4-1 4-3 22-23 4-6v-2q0-2-3-2m-100 13-1 4 5 8v2l6 6h2v-3l-9-15q-1-2-3-2m-15 1-30 19-25 19-12 7-3 4v2l10 11 6 4 7 8h3l13-6 5-1 7-4h2l6-4 9-3 13-8 4-4 8-12-1-4-13-19-1-5-3-4zm-558 22-10 5-2 2-6 1-26 13-34 22h-2l-5 3h-3l-1 4 6 4h26l13-5h27l4-6 2-9 7-10 2-4v-5l6-8 1-4q-1-4-5-3m417 6-2 1-7 7-11 19-6 19-4 7-3 11-7 13-4 12-2 3v2l-2 3v2l-2 3v3l-4 11v3l-2 3-1 6-1 1-1 12-2 4q1 3-1 4v6l-1 1v12q2 0 1 4h2l2-4 1-7 1-1v-4l1-1 1-10 2-5v-4l3-7v-3l4-8 3-16 3-5 5-15 4-7v-2l6-11 13-39q6-11 15-18v-3q-1-3-4-2m167 12-5 7-11 10-12 6h-2l-4 3-5 1-10 5-3 3 2 2h5l3-1 7-4 12-4 14-9 10-11q2-2 1-6zm-109 17-12 8-15 7-3 3q-7 2-10 6h-2l-15 8q-3 1-2 5l5 3 7 1 14 5h10l1-1h8l1-1 10-1 10-5 5-1 13-10-1-4-5-5-6-5-6-10q-2-4-7-3m-601 13-3 1-5 5-4 8v2l3 3 4-1 7-10v-6zm644 10-5 2-3 3 1 3q7-1 10-5zm-725 36-14 11-6 3q-6 6-13 10l-6 6-10 6-9 8-27 17-5 2-6 5 1 1h5l6-4 5-1 14-9 9-4q3 1 5-1h15l4-2 12-11 6-4 6-6 9-12 3-8v-5q-1-3-4-2m320 3-4 2h-6l-1 1h-10l-6 2-13 8-9 7-11 12-5 11v15q4 8 11 13l7 13 1 5 7 15 1 5 4 7 1 7 6 13v2q3 7 9 13l5 11-1 3-2 1-6-1-6-3-23 1q-2 2-6 1l-1 1-3-1h-6l-1 1q-5 1-5-1h-15l-1-1h-8l-1 1h-25l-1-1h-8l-6 2-2 2v2l4 4q1 4-2 5-5 1-6-2h-3l-1 3 8 5h4l5-3 10-2 11-7 7-1 1-1h12q0 2 5 1l6 3h2l9 5 8 1 8 3h6l1 1q4-1 7 1 2 1 1 5l-2 2q-4-1-4 1l-1-1-8-1-1-1-8-1-7-4-9-1-5-3-6-2h-3l-1-1h-5q-2 3-6 2l-3 2-8 2-7 4-9 1-11 6-4 4q-1 3 2 4l6-3 7-6h2l3-2h19l1-1h9l9 3 2 2 15 7q3-1 4 1h7l7 3h4l9 3 4-1 7-6 12-5h6q0 2 4 1l6 3h8l1-4q-3-4-7-6l-9-3-10-1-11-6-6-4 1-5h5l6 3q2 4 8 6h4l4 2h9l6 3h3l2-4-3-8-4-6v-11l1-1v-13l-10-30-1-7-1-1v-4l-1-1v-6l-3-9v-3l-1-1q1-5-1-6v-34l-5-10v-3l6-10 7-6 7-8-1-4zm-58 12-7 3-7 5-5 6-3 7v7h6l4-10 3-4 7-6 3-4q1-3-1-4m244 21-4 3 2 2h4l1-1 7-1v-1l-1-2zm17 9-1 1h-9l-3 2-6 1-1 1h-7l-9 5-12 13-7 11-3 9v4h3l2-3 1-8 6-6q3-1 5 1h3l7-6 1-2 18-12 10-4h5l4-3-2-3zm14 15-2 2v2l6 6 1 3 5 3 4-3v-3l-3-5-8-5zm-18 6-16 10-17 20-3 7v11l4 9 14 16 6 5 26 13h5l5-2h5l6 2v4l-2 2h-6l-3 1q-2 1-2 4l7 5q9 4 16 10l9 4 7 6 7 3 2 4-3 2-7-1-12-5h-11l-1-1-7 1-1 1h-4l-8 4h-2q-6 3-10 8v5l2 4 6 2q3 1 1 8l3 2h4l5-4 3-1 4 2v3l-7 8 3 3 8-3h5l6-2 10-1 9-3h3l1-1h16l1 1h15l1 1h23l6-2h18q1-2 6-1l1-1h8l9-3h10q1-2 6-1l9-3 4-3q-2-1-1-4l-12-16-12-10-6-2h-3l-3-2h-3l-8-3q-5 1-5-1h-16l-6-2h-4l-1-1h-16l-6-2h-6l-1-1h-10l-8-4-10-8-35-38-2-4-1-7-5-9-1-9-1-1v-3l-4-12-5-8-5-6zM41 495l-10 7-5 1q-4 1-3 7l4 2 4-1 11-9 2-5q0-2-3-2m271 14-6 4-24 26-4 6-9 8-2 3-15 12-25 15-18 6-10 1-1 1h-7l-1 1h-6l-5 2q-4 3-6 8l-12 9-5 7 2 4h4l7-7 21-12 3-1h8q1-2 6-1l4-2h5v3l-6 4h-8l-3 1-12 7-9 9-2 4-1 7-2 2-6 1-5 6 3 3h3q4-5 12-8l11-11 6-3h2l2-2 15-8 9-1 8-3h7l1-1h15q8-3 15-8l17-17 5-7 10-9v-1l3-2 6-7 18-16 2-3-2-4q-2 2-6 1l-1 1h-5l-9 3q-1-2-4-1-2-1-2-3l5-4 10-2 9-4 8-2 3-4-1-2-7-5-6-2h-3l-4-2zm175 10-2 1-2 3 2 6 1 14 2 4 3 1h19l1-1h11l1-1h6l1-1h6l1-1h7q0-2 4-1l1-1-1-5-5-4h-2l-16-7-7-1-1-1h-9q-2-2-6-1l-8-3zm70 32-6 2h-4l-1 1h-7l-1 1h-11q-2 2-5 1l-5 2h-4l-5 3-3 5v5l4 4h16l1-1h6l1-1 2 1h8l1-1 2 1h9l1 1h12l6 2h24q2-1 1-4l-5-5-4-4-8-9-7-3-3-1zm-391 41-8 4-7 6q-3 2-4 6-2 5-8 6l-6 6-1 6h5l6-7 2-4 13-11 8-4 4-5q0-3-4-3m157 15-2 1q-3 1-2 7h5q3-1 2-5zm-174 19-4 3q-1 5 2 6h4l3-3-1-5zm521 9-3 3 2 8q-1 3-5 2-2 1-2 4l5 3 5-2q4-3 6-8v-2l-4-5z"/><path fill="#e01708" d="M581.5 391q4-.5 4.5 2.5 1.8 8.8-3.5 10.5-4.7.8-5.5-2.5v-5l2.5-4.5zm-9 21q6.3-1.2 7.5 2.5l-1.5 2.5-5 1-1.5 1.5 4 4v3q-1.5 4-8.5 2.5l-3-2h-2l-2.5-2.5q-1-5.5 2.5-6.5l4-1zm-368 3h6q.8 1.7 4 1l4.5 4.5q2 2.5 1 8l-5.5 7.5-3 2h-2l-10-7-4.5-4.5-1-2 1-3 4.5-4.5zm352 16q9 1 12.5 7.5l-1.5 3.5-8 7q-2.2 1.8-7 1l-8.5-4.5-1-3q1.3-3.7 7.5-2.5l1 1h6l.5-3.5-3-3v-2zm-365 2h2l4.5 4.5-.5 4.5q-5.5 1-6.5-2.5l-1-4zm346 18 4 1 6.5 6.5 1 5-4.5 1.5-8-3h-3l-2.5-2.5q.5-5.5 4.5-7.5zm-270 122 2.5.5q.5 4-2.5 4.5l-9 7-5 1-.5-3.5 2.5-3.5zm491 42h27l2.5 1.5 1 3-1.5 1.5q-3.3-.7-4 1h-5l-1-1h-15q-1.2 2.3-6 1l-3.5-1.5.5-3.5z"/></svg>